/* XPM */
static char *result[] = {
/* columns rows colors chars-per-pixel */
"96 96 15 1 ",
"  c black",
". c #2E7D32",
"X c #4A4A4C",
"o c #795548",
"O c #8B421C",
"+ c #9E471A",
"@ c #FF6011",
"# c #FF6112",
"$ c #558B2F",
"% c #FF9411",
"& c #DFDFDF",
"* c #FEE8C9",
"= c #FEE9C9",
"- c #FBFBFB",
"; c white",
/* pixels */
"oooooooooooooooooooooooooooooooooooooooooooooooooooooooooooooooooooooooooooooooooooooooooooooooo",
"oooooooooooooooooooooooooooooooooooooooooooooooooooooooooooooooooooooooooooooooooooooooooooooooo",
"oooooooooooooooooooooooooooooooooooooooooooooooooooooooooooooooooooooooooooooooooooooooooooooooo",
"oooooooooooooooooooooooooooooooooooooooooooooooooooooooooooooooooooooooooooooooooooooooooooooooo",
"oooooooooooooooooooooooooooooooooooooooooooooooooooooooooooooooooooooooooooooooooooooooooooooooo",
"oooooooooooooooooooooooooooooooooooooooooooooooooooooooooooooooooooooooooooooooooooooooooooooooo",
"ooooooooooooooooooooo      oooooooooooooooooo$$$$$$ooooooooooooooooooooo      oooooooooooooooooo",
"ooooooooooooooooooooo      oooooooooooooooooo$$$$$$ooooooooooooooooooooo      oooooooooooooooooo",
"ooooooooooooooooooooo      oooooooooooooooooo$$$$$$ooooooooooooooooooooo      oooooooooooooooooo",
"ooooooooooooooooooooo            ooooooooooooooo$$$ooo$$$oooooooooooo         oooooooooooooooooo",
"ooooooooooooooooooooo            ooooooooooooooo$$$ooo$$$oooooooooooo         oooooooooooooooooo",
"ooooooooooooooooooooo            ooooooooooooooo$$$ooo$$$oooooooooooo         oooooooooooooooooo",
"oooooooooooooooooo      %%%         ooooooooooooooo$$$oooooooooooo      %%%      ooooooooooooooo",
"oooooooooooooooooo      %%%         ooooooooooooooo$$$oooooooooooo      %%%      ooooooooooooooo",
"oooooooooooooooooo      %%%         ooooooooooooooo$$$oooooooooooo      %%%      ooooooooooooooo",
"oooooooooooooooooo      %%%%%%         oooooooooooooooooooooooo      %%%%%%      ooooooooooooooo",
"oooooooooooooooooo      %%%%%%         oooooooooooooooooooooooo      %%%%%%      ooooooooooooooo",
"oooooooooooooooooo      %%%%%%         oooooooooooooooooooooooo      %%%%%%      ooooooooooooooo",
"oooooooooooooooooo   %%%%%%%%%%%%@@@@@@ooooooooooooooooooooo@@@@@@%%%%%%%%%%%%   ooooooooooooooo",
"oooooooooooooooooo   %%%%%%%%%%%%@@@@@@ooooooooooooooooooooo@@@@@@%%%%%%%%%%%%   ooooooooooooooo",
"oooooooooooooooooo   %%%%%%%%%%%%@@@@@@ooooooooooooooooooooo@@@@@@%%%%%%%%%%%%   ooooooooooooooo",
"oooooooooooooooooo@@@%%%%%%%%%%%%@@@@@@@@@oooooooooooooooooo@@@@@@%%%%%%%%%%%%   ooooooooooooooo",
"oooooooooooooooooo@@@%%%%%%%%%%%%@@@@@@@@@oooooooooooooooooo@@@@@@%%%%%%%%%%%%   ooooooooooooooo",
"oooooooooooooooooo@@@%%%%%%%%%%%%@@@@@@@@@oooooooooooooooooo@@@@@@%%%%%%%%%%%%   ooooooooooooooo",
"oooooooooooooooooo@@@%%%%%%%%%%%%@@@@@@@@@@@@@@@@@@@@@@@@@@@@@@@@@%%%%%%%%%%%%@@@ooooooooooooooo",
"oooooooooooooooooo@@@%%%%%%%%%%%%@@@@@@@@@@@@@@@@@@@@@@@@@@@@@@@@@%%%%%%%%%%%%@@@ooooooooooooooo",
"oooooooooooooooooo@@@%%%%%%%%%%%%@@@@@@@@@@@@@@@@@@@@@@@@@@@@@@@@@%%%%%%%%%%%%@@@ooooooooooooooo",
"oooooooooooooooooo@@@@@@%%%%%%%%%@@@@@@@@@@@@@@@@@@@@@@@@@@@@@@@@@%%%%%%%%%@@@@@@ooooooooooooooo",
"oooooooooooooooooo@@@        %%%%   @@@@@@@@@@@@@@@@@@@@   @                 @@@@ooooooooooooooo",
"oooooooooooooooooo@@ ........  % ... @@@@@@@@@@@@@@@@@@ ... ................. @@@ooooooooooooooo",
"oooooooooooooooooo@@ ..........  .... @@@@@@@@@@@@@@@@ .... ................. @@@ooooooooooooooo",
"oooooooooooooooooo@@ ...........  .... @@@@@@@@@@@@@@ ....  ................. @@@ooooooooooooooo",
"oooooooooooooooooo@@ ...     ....  ... @@@@@@@@@@@@@@ ... @ ...              @@@@ooooooooooooooo",
"ooo$$$$$$ooooooooo@@ ... @@@@ .... .... @@@@@@@@@@@@ ... @@ ... @@@@@@@@@@@@@@oooooo$$$$$$oooooo",
"ooo$$$$$$ooooooooo@@ ... @@@@@ ...  ... @@@@@@@@@@@@ ... @@ ... @@@@@@@@@@@@@@oooooo$$$$$$oooooo",
"ooo$$$$$$ooooooooo@@ ... @@@@@ ...  .... @@@@@@@@@@ ... @@@ ... @@@@@@@@@@@@@@oooooo$$$$$$oooooo",
"oooooo$$$ooo$$$ooo@@ ... @@@@@ ... @ ... @@@@@@@@@@ ... @@@ ... @@@@@@@@@@@@@@ooooooooo$$$ooo$$$",
"oooooo$$$ooo$$$ooo@@ ... @@@@@ ... @ .... @@@@@@@@ ... @@@@ ... @@@@@@@@@@@@@@ooooooooo$$$ooo$$$",
"oooooo$$$ooo$$$ooo@@ ... @@@@@ ... @@ ... @@@@@@@@ ... @@@@ ... @@@@@@@@@@@@@@ooooooooo$$$ooo$$$",
"ooooooooo$$$oooooo@@ ... @@@@@ ... @@ .... @@@@@@ ... @@@@@ ... @@@@@@@@@@@@@@oooooooooooo$$$ooo",
"ooooooooo$$$oooooo@@ ... @@@@ .... @@@ ... @@@@@@ ... @@@@@ ... @@@@@@@@@@@@@@oooooooooooo$$$ooo",
"ooooooooo$$$oooooo@@ ... @@@ .... @@@@ ... @@@@@ ... @@@@@@ ... @@@@@@@@@@@@@@oooooooooooo$$$ooo",
"oooooooooooooooooo@@ ... @@ .... @@@@@@ ... @@@ .... @@@@@@ ... @@@@@@@@@@@@@@@@@ooooooooooooooo",
"oooooooooooooooooo@@ ...   .... @@@@@@@ ... @@@ ... @@@@@@@ ...        @@@@@@@@@@ooooooooooooooo",
"oooooooooooooooooo@@ ......... @@@@@@@@@ ... @ ... @@@@@@@@ ........... @@@@@@@@@ooooooooooooooo",
"ooooooooooooooo@@@@@ .......... @@@@@@@@ ... @ ... @@@@@@@@ ........... @@@@@@@@@ooooooooooooooo",
"ooooooooooooooo@@@@@ ........... @@@@@@@@ ... ... @@@@@@@@@ ........... @@@@@@@@@ooooooooooooooo",
"ooooooooooooooo@@@@@ ...    ..... @@@@@@@ ....... @@@@@@@@@ ...        @@@@@@@@@@ooooooooooooooo",
"ooooooooooooooo@@@@@ ... @@   ....  +++@@@ ..... @@@@@@@@OO ... @@@@@@@@@@@@@@@@@@@@oooooooooooo",
"ooooooooooooooo@@@@@ ... @@@@@ .... +++@@@@ ... @@@@@@@@@OO ... @@@@@@@@@@@@@@@@@@@@oooooooooooo",
"ooooooooooooooo@@@@@ ... @@@@@@ ... +++@@@@ ... @@@@@@@@@OO ... @@@@@@@@@@@@@@@@@@@@oooooooooooo",
"ooooooooooooooo@@@@@ ... @@@@@@ ...    @@@@ ... @@@@@@@@@&& ... @@@@@@@@@@@@@@@@@@@@oooooooooooo",
"ooooooooooooooo@@@@@ ... @@@@@@ ....   @@@@ ... @@@@@@@@@&& ... @@@@@@@@@@@@@@@@@@@@oooooooooooo",
"ooooooooooooooo@@@@@ ... @@@@@@@ ...   @@@@ ... @@@@@@@@@&& ... @@@@@@@@@@@@@@@@@@@@oooooooooooo",
"oooooooooooo@@@@@@@@ ... @@@@@@@ ...   @@@@ ... @@@@@@@@@   ... @@@@@@@@@@@@@@@@@@@@oooooooooooo",
"oooooooooooo@@@@@@@@ ... @@@@@@@ ...   @@@@ ... @@@@@@@@@   ... @@@@@@@@@@@@@@@@@@@@oooooooooooo",
"oooooooooooo@@@@@@@@ ... @@@@@@ ....   @@@@ ... @@@@@@@@@   ... @@@@@@@@@@@@@@@@@@@@oooooooooooo",
"oooooooooooo@@@@@@@@ ... @@@@@@ ...    @@@@ ... @@@@@@@@@   ... @@@@@@@@@@@@@@@@@@@@@@@ooooooooo",
"oooooooooooo@@@@@@@@ ... @@@@@@ ...    @@@@ ... @@@@@@@@@   ... @@@@@@@@@@@@@@@@@@@@@@@ooooooooo",
"oooooooooooo@@@@@@@@ ... @@@@@ ....    @@@@ ... @@@@@@@@@   ... @@@@@@@@@@@@@@@@@@@@@@@ooooooooo",
"ooooooooo@@@@@@&&&&& ...      .... @@@@@@@@ ... @@@@@@@@@@@ ...              &&&&&&&@@@ooooooooo",
"ooooooooo@@@@@@&&&&& ............ @@@@@@@@@ ... @@@@@@@@@@@ ................. &&&&&&@@@ooooooooo",
"ooooooooo@@@@@@&&&&& ........... @@@@@@@@@@ ... @@@@@@@@@@@ ................. &&&&&&@@@ooooooooo",
"oooooo&&&&&&&&&&&&&& .......... #@@@@@@@@@@ ... @@@@@@@@@@@ ................. &&&&&&&&&&&&oooooo",
"oooooo&&&&&&&&&&&&&&&          ##@@@@@@@@@@@   @@@@@@@@@@@@@                 &&&&&&&&&&&&&oooooo",
"oooooo&&&&&&&&&&&&&&&&&&&&&&&&###@@@@@@@@@@@@@@@@@@@@@@@@@@@@@@@@@&&&&&&&&&&&&&&&&&&&&&&&&oooooo",
"oooooo&&&&&&&&&&&&&&&;;;---&&&&&&&&&@@@@@@@@@@@@@@@@@@@@@@@@&&&&&&&&&;;;;;;&&&&&&&&&&&&&&&oooooo",
"oooooo&&&&&&&&&&&&&&&;;;---&&&&&&&&&@@@@@@@@@@@@@@@@@@@@@@@@&&&&&&&&&;;;;;;&&&&&&&&&&&&&&&oooooo",
"oooooo&&&&&&&&&&&&&&&;;;---&&&&&&&&&@@@@@@@@@@@@@@@@@@@@@@@@&&&&&&&&&;;;;;;&&&&&&&&&&&&&&&oooooo",
"ooooooooo&&&&&&&&&&&&&&&&&&;;;;;;&&&&&&@@@@@@@@@@@@@@@@@@&&&&&&;;;;;;&&&&&&&&&&&&&&&&&&ooooooooo",
"ooooooooo&&&&&&&&&&&&&&&&&&;;;;;;&&&&&&@@@@@@@@@@@@@@@@@@&&&&&&;;;;;;&&&&&&&&&&&&&&&&&&ooooooooo",
"ooooooooo&&&&&&&&&&&&&&&&&&;;;;;;&&&&&&@@@@@@@@@@@@@@@@@@&&&&&&;;;;;;&&&&&&&&&&&&&&&&&&ooooooooo",
"ooooooooooooooo&&&&&&;;;;;;&&&&&&&&&===***@@@@@@@@@@@@@@@===&&&&&&&&&;;;;;;&&&&&&&&&oooooooooooo",
"ooooooooooooooo&&&&&&;;;;;;&&&&&&&&&===***@@@@@@@@@@@@@@@===&&&&&&&&&;;;;;;&&&&&&&&&oooooooooooo",
"ooooooooooooooo&&&&&&;;;;;;&&&&&&&&&===***@@@@@@@@@@@@@@@===&&&&&&&&&;;;;;;&&&&&&&&&oooooooooooo",
"oooooooooooooooooo&&&&&&&&&;;;;;;&&&======            ======&&&;;;;;;&&&&&&&&&oooooooooooooooooo",
"oooooooooooooooooo&&&&&&&&&;;;;;;&&&======            ======&&&;;;;;;&&&&&&&&&oooooooooooooooooo",
"oooooooooooooooooo&&&&&&&&&;;;;;;&&&======            ======&&&;;;;;;&&&&&&&&&oooooooooooooooooo",
"oooooooooooooooooooooooo&&&&&&&&&&&&======            ======&&&&&&&&&&&&oooooooooooooooooooooooo",
"oooooooooooooooooooooooo&&&&&&&&&&&&======            ======&&&&&&&&&&&&oooooooooooooooooooooooo",
"oooooooooooooooooooooooo&&&&&&&&&&&&======            ======&&&&&&&&&&&&oooooooooooooooooooooooo",
"oooooooooooooooooooooooooooooo&&&&&&=========      =========&&&&&&oooooooooooooooooooooooooooooo",
"oooooooooooooooooooooooooooooo&&&&&&=========      =========&&&&&&oooooooooooooooooooooooooooooo",
"oooooooooooooooooooooooooooooo&&&&&&=========      =========&&&&&&oooooooooooooooooooooooooooooo",
"ooo$$$$$$ooooooooooooooooooooooooooo&&&XXX===XXXXXX===XXX&&&oooooooooooooooooo$$$$$$oooooooooooo",
"ooo$$$$$$ooooooooooooooooooooooooooo&&&XXX===XXXXXX===XXX&&&oooooooooooooooooo$$$$$$oooooooooooo",
"ooo$$$$$$ooooooooooooooooooooooooooo&&&XXX===XXXXXX===XXX&&&oooooooooooooooooo$$$$$$oooooooooooo",
"oooooo$$$ooo$$$oooooooooooooooooooooooo&&&XXXXXXXXXXXX&&&oooooooooooooooooooooooo$$$ooo$$$oooooo",
"oooooo$$$ooo$$$oooooooooooooooooooooooo&&&XXXXXXXXXXXX&&&oooooooooooooooooooooooo$$$ooo$$$oooooo",
"oooooo$$$ooo$$$oooooooooooooooooooooooo&&&XXXXXXXXXXXX&&&oooooooooooooooooooooooo$$$ooo$$$oooooo",
"ooooooooo$$$oooooooooooooooooooooooooooooo&&&&&&&&&&&&oooooooooooooooooooooooooooooo$$$ooooooooo",
"ooooooooo$$$oooooooooooooooooooooooooooooo&&&&&&&&&&&&oooooooooooooooooooooooooooooo$$$ooooooooo",
"ooooooooo$$$oooooooooooooooooooooooooooooo&&&&&&&&&&&&oooooooooooooooooooooooooooooo$$$ooooooooo",
"oooooooooooooooooooooooooooooooooooooooooooooooooooooooooooooooooooooooooooooooooooooooooooooooo",
"oooooooooooooooooooooooooooooooooooooooooooooooooooooooooooooooooooooooooooooooooooooooooooooooo",
"oooooooooooooooooooooooooooooooooooooooooooooooooooooooooooooooooooooooooooooooooooooooooooooooo"
};
