/* XPM */
static char *result[] = {
/* columns rows colors chars-per-pixel */
"32 32 5 1 ",
"  c #33231E",
". c #4D362E",
"X c #795548",
"o c #558B2F",
"O c white",
/* pixels */
"XXXXXXXXXXXXXXXXXXXXXXXXXXXXXXXX",
"XXXXXXXXXXXXXXXXXXXXXXXXooXXXXXX",
"XooXXXXXXXXXXXXXXXXXXXXXXoXoXXXX",
"XXoXoXXXXXXXXXXXXXXXXXXXXXoXXXXX",
"XXXoXX                     XXXXX",
"XXXXXX                     XXXXX",
"XXXXXX  O O OOO OO OO OOO  XXXXX",
"XXXXXX  O O O O O O O O    XXXXX",
"XXXXXX  OOO O O O O O OO   XXXXX",
"XXXXXX  O O O O O   O O    XXXXX",
"XXXXXX  O O OOO O   O OOO  XXXXX",
"XXXXXX                     XXXXX",
"XXXXXX                     XXXXX",
"XXXXXXXXXXXXXXX   XXXXXXXXXXXXXX",
"XXXXXXXXXXXXXXX   XXXXXXXXXXXXXX",
"XXXXXXXXXXXXXX.   .XXXXXXXXXXXXX",
"XXXXXXXXXXXX...   ...XXXXXXXXXXX",
"XXXXXXXXXXX...........XXXXXXXXXX",
"XXXXXXXXXX.............XXXXXXXXX",
"XXXXXXXXXX.............XoXXXXXXX",
"XXXXXooXX...............XXXXXXXX",
"XXXXXXoXo...............XXXXXXXX",
"XXXXXXXoX...............XXXXXXXX",
"XXXXXXXXX...............XXXXXXXX",
"XXXXXXXXX...............XXXXXXXX",
"XXXXXXXXXX.............XXXXXXXXX",
"XXXXXXXXXX.............XXXXXXXXX",
"XXXXXXXXXXX...........XXXXXXXXXX",
"XXXXXXooXXXX.........XXXXXXooXXX",
"XXXXXXXoXoXXXX.....XXXXXXXXXoXoX",
"XXXXXXXXoXXXXXXXXXXXXXXXXXXXXoXX",
"XXXXXXXXXXXXXXXXXXXXXXXXXXXXXXXX"
};
