/* XPM */
static char *result[] = {
/* columns rows colors chars-per-pixel */
"32 32 3 1 ",
"  c #4D362E",
". c #795548",
"X c #558B2F",
/* pixels */
"................................",
"........................XX......",
".XX......................X.X....",
"..X.X.....................X.....",
"...X............................",
"................................",
"................................",
"..................XX............",
"...................X.X..........",
".........XX.........X...........",
"..........X.X...................",
"...........X....................",
"................................",
"................................",
"................................",
"..............     .............",
"............         ...........",
"...........           ..........",
"..........             .........",
"..........             .X.......",
".....XX..               ........",
"......X.X               ........",
".......X.               ........",
".........               ........",
".........               ........",
"..........             .........",
"..........             .........",
"...........           ..........",
"......XX....         ......XX...",
".......X.X....     .........X.X.",
"........X....................X..",
"................................"
};
