/* XPM */
static char *result[] = {
/* columns rows colors chars-per-pixel */
"96 96 14 1 ",
"  c black",
". c #4A4A4C",
"X c #795548",
"o c #8C1515",
"O c #558B2F",
"+ c #5693F5",
"@ c #54AFF5",
"# c #47E1F5",
"$ c #56E0F5",
"% c #DFDFDF",
"& c #FEE8C9",
"* c #FEE9C9",
"= c #FBFBFB",
"- c white",
/* pixels */
"XXXXXXXXXXXXXXXXXXXXXXXXXXXXXXXXXXXXXXXXXXXXXXXXXXXXXXXXXXXXXXXXXXXXXXXXXXXXXXXXXXXXXXXXXXXXXXXX",
"XXXXXXXXXXXXXXXXXXXXXXXXXXXXXXXXXXXXXXXXXXXXXXXXXXXXXXXXXXXXXXXXXXXXXXXXXXXXXXXXXXXXXXXXXXXXXXXX",
"XXXXXXXXXXXXXXXXXXXXXXXXXXXXXXXXXXXXXXXXXXXXXXXXXXXXXXXXXXXXXXXXXXXXXXXXXXXXXXXXXXXXXXXXXXXXXXXX",
"XXXXXXXXXXXXXXXXXXXXXXXXXXXXXXXXXXXXXXXXXXXXXXXXXXXXXXXXXXXXXXXXXXXXXXXXXXXXXXXXXXXXXXXXXXXXXXXX",
"XXXXXXXXXXXXXXXXXXXXXXXXXXXXXXXXXXXXXXXXXXXXXXXXXXXXXXXXXXXXXXXXXXXXXXXXXXXXXXXXXXXXXXXXXXXXXXXX",
"XXXXXXXXXXXXXXXXXXXXXXXXXXXXXXXXXXXXXXXXXXXXXXXXXXXXXXXXXXXXXXXXXXXXXXXXXXXXXXXXXXXXXXXXXXXXXXXX",
"XXXXXXXXXXXXXXXXXXXXXXXXXXXXXXXXXXXXXXXXXXXXXXXXXXXXXXXXXXXXXXXXXXXXXXXXXXXXXXXXXXXXXXXXXXXXXXXX",
"XXXXXXXXXXXXXXXXXXXXXXXXXXXXXXXXXXXXXXXXXXXXXXXXXXXXXXXXXXXXXXXXXXXXXXXXXXXXXXXXXXXXXXXXXXXXXXXX",
"XXXXXXXX         XX       XX       XXXXX       XX       XX  XXXXXXX    XXXXXXXXXXXXXXXXXXXXXXXXX",
"XXXXXXX ooooooooo  ooooooo  ooooooo XXX ooooooo  ooooooo  oo XXXXX oooo  XXXXXXXXXXXXXXXXXXXXXXX",
"XXXXXXX ooooooooo  ooooooo  ooooooo XXX ooooooo  ooooooo  oo XXXXX oooooo XXXXXXXXXXXXXXXXXXXXXX",
"XXXXXXXX   ooo   X oo   oo  oo   oo XXX oo     X oo   oo  oo XXXXX oo oooo XXXXXXXXXXXXXXXXXXXXX",
"XXXXXXXXXX ooo XXX oo X oo  oo X oo XXX oo XXXXX oo X oo  oo XXXXX oo   oo XXXXXXXXXXXXXXXXXXXXX",
"XXXXXXXXXX ooo XXX oo X oo  oo X oo XXX oo XXXXX oo X oo  oo XXXXX oo X oo XXXXXXXXXXXXXXXXXXXXX",
"XXXXXXXXXX ooo XXX oo X oo  oo X oo XXX oo XXXXX oo X oo  oo XXXXX oo X oo XXXXXXXXXXXXXXXXXXXXX",
"XXXXXXXXXX ooo XXX oo X oo  oo X oo XXX oo XXXXX oo X oo  oo XXXXX oo   oo XX   XX   XX   XXXXXX",
"XXXXXXXXXX ooo XXX oo   oo  oo   oo XXX oo     X oo   oo  oo     X oo oooo X ooo  ooo  ooo XXXXX",
"XXXXXXXXXX ooo XXX ooooooo  ooooooo XXX ooooooo  ooooooo  ooooooo  oooooo XX ooo  ooo  ooo XXXXX",
"XXXXXXXXXX ooo XXX ooooooo  ooooooo XXX ooooooo  ooooooo  ooooooo  oooo  XXX ooo  ooo  ooo XXXXX",
"XXXXXXXXXXX   XXXXX       XX         XXX       XO       XX             XXXXXX   XX   XX   XXXXXX",
"XXXXXXXXXXXXXXXXXXXXXXXXXXXX         XXXXXXXXXXXOOXXOOOXXXXXXXXX      XXXXXXXXXXXXXXXXXXXXXXXXXX",
"XXXXXXXXXXXXXXXXXXXXXXXXXX    $$       XXXXXXXXXXXOOXXXXXXXXX     $$     XXXXXXXXXXXXXXXXXXXXXXX",
"XXXXXXXXXXXXXXXXXXXXXXXXXX    $$       XXXXXXXXXXXOOXXXXXXXXX     $$     XXXXXXXXXXXXXXXXXXXXXXX",
"XXXXXXXXXXXXXXXXXXXXXXXXXX    $$$$$      XXXXXXXXXXXXXXXXXX     $$$$     XXXXXXXXXXXXXXXXXXXXXXX",
"XXXXXXXXXXXXXXXXXXXXXXXXXX    $$$$$      XXXXXXXXXXXXXXXXXX     $$$$     XXXXXXXXXXXXXXXXXXXXXXX",
"XXXXXXXXXXXXXXXXXXXXXXXXXX    $$$$$      XXXXXXXXXXXXXXXXXX     $$$$     XXXXXXXXXXXXXXXXXXXXXXX",
"XXXXXXXXXXXXXXXXXXXXXXXXXX  $$$$$$$$$@@@@XXXXXXXXXXXXXXXX@@@@$$$$$$$$$   XXXXXXXXXXXXXXXXXXXXXXX",
"XXXXXXXXXXXXXXXXXXXXXXXXXX  $$$$$$$$$@@@@XXXXXXXXXXXXXXXX@@@@$$$$$$$$$   XXXXXXXXXXXXXXXXXXXXXXX",
"XXXXXXXXXXXXXXXXXXXXXXXXXX@@$$$$$$$$$@@@@@@@XXXXXXXXXXXXX@@@@$$$$$$$$$   XXXXXXXXXXXXXXXXXXXXXXX",
"XXXXXXXXXXXXXXXXXXXXXXXXXX@@$$$$$$$$$@@@@@@@XXXXXXXXXXXXX@@@@$$$$$$$$$   XXXXXXXXXXXXXXXXXXXXXXX",
"XXXXXXXXXXXXXXXXXXXXXXXXXX@@$$$$$$$$$@@@@@@@@@@@@@@@@@@@@@@@@$$$$$$$$$@@@XXXXXXXXXXXXXXXXXXXXXXX",
"XXXXXXXXXXXXXXXXXXXXXXXXXX@@$$$$$$$$$@@@@@@@@@@@@@@@@@@@@@@@@$$$$$$$$$@@@XXXXXXXXXXXXXXXXXXXXXXX",
"XXXXXXXXXXXXXXXXXXXXXXXXXX@@@@$$$$$$$@@@@@@@@@@@@@@@@@@@@@@@@$$$$$$$@@@@@XXXXXXXXXXXXXXXXXXXXXXX",
"XXXXXXXXXXXXXXXXXXXXXXXXXX@@@@$$$$$$$@@@@@@@@@@@@@@@@@@@@@@@@$$$$$$$@@@@@XXXXXXXXXXXXXXXXXXXXXXX",
"XXXXXXXXXXXXXXXXXXXXXXXXXX@@@@$$$$$$$@@@@@@@@@@@@@@@@@@@@@@@@$$$$$$$@@@@@XXXXXXXXXXXXXXXXXXXXXXX",
"XXXXXXXXXXXXXXXXXXXXXXXXXX@@@@$$@@@@@@@@@@@@@@@@@@@@@@@@@@@@@@@@@@$$@@@@@XXXXXXXXXXXXXXXXXXXXXXX",
"XXXXXXXXXXXXXXXXXXXXXXXXXX@@@@$$@@@@@@@@@@@@@@@@@@@@@@@@@@@@@@@@@@$$@@@@@XXXXXXXXXXXXXXXXXXXXXXX",
"XXXXXXXXXXXXXXXOOOOXXXXXXX@@@@@@@@@@@@@@@@@@@@@@@@@@@@@@@@@@@@@@@@@@@@XXXXXOOOOXXXXXXXXXXXXXXXXX",
"XXXXXXXXXXXXXXXOOOOXXXXXXX@@@@@@@@@@@@@@@@@@@@@@@@@@@@@@@@@@@@@@@@@@@@XXXXXOOOOXXXXXXXXXXXXXXXXX",
"XXXXXXXXXXXXXXXXXOOXXOOXXX@@@@@@@@@@@@@@@@@@@@@@@@@@@@@@@@@@@@@@@@@@@@XXXXXXXOOXXOOOXXXXXXXXXXXX",
"XXXXXXXXXXXXXXXXXOOXXOOXXX@@@@@@@@@@@@@@@@@@@@@@@@@@@@@@@@@@@@@@@@@@@@XXXXXXXOOXXOOOXXXXXXXXXXXX",
"XXXXXXXXXXXXXXXXXXXOOXXXXX@@@@@@@@@@@@@@@@@@@@@@@@@@@@@@@@@@@@@@@@@@@@XXXXXXXXXOOXXXXXXXXXXXXXXX",
"XXXXXXXXXXXXXXXXXXXOOXXXXX@@@@@@@@@@@@@@@@@@@@@@@@@@@@@@@@@@@@@@@@@@@@XXXXXXXXXOOXXXXXXXXXXXXXXX",
"XXXXXXXXXXXXXXXXXXXOOXXXXX@@@@@@@@@@@@@@@@@@@@@@@@@@@@@@@@@@@@@@@@@@@@XXXXXXXXXOOXXXXXXXXXXXXXXX",
"XXXXXXXXXXXXXXXXXXXXXXXXXX@@@@@@@@@@@@@@@@@@@@@@@@@@@@@@@@@@@@@@@@@@@@@@@XXXXXXXXXXXXXXXXXXXXXXX",
"XXXXXXXXXXXXXXXXXXXXXXXXXX@@@@@@@@@@@@@@@@@@@@@@@@@@@@@@@@@@@@@@@@@@@@@@@XXXXXXXXXXXXXXXXXXXXXXX",
"XXXXXXXXXXXXXXXXXXXXXXX@@@@@@@@@@@@@@@@@@@@@@@@@@@@@@@@@@@@@@@@@@@@@@@@@@XXXXXXXXXXXXXXXXXXXXXXX",
"XXXXXXXXXXXXXXXXXXXXXXX@@@@@@@@@@@@@@@@@@@@@@@@@@@@@@@@@@@@@@@@@@@@@@@@@@XXXXXXXXXXXXXXXXXXXXXXX",
"XXXXXXXXXXXXXXXXXXXXXXX@@@@@@@@@@@@@@  ++@@@@@@@@@@@@@@++  @@@@@@@@@@@@@@##XXXXXXXXXXXXXXXXXXXXX",
"XXXXXXXXXXXXXXXXXXXXXXX@@@@@@@@@@@@@@  ++@@@@@@@@@@@@@@++  @@@@@@@@@@@@@@##XXXXXXXXXXXXXXXXXXXXX",
"XXXXXXXXXXXXXXXXXXXXXXX@@@@@@@@@@@@@@%%  @@@@@@@@@@@@@@%%  @@@@@@@@@@@@@@@@XXXXXXXXXXXXXXXXXXXXX",
"XXXXXXXXXXXXXXXXXXXXXXX@@@@@@@@@@@@@@%%  @@@@@@@@@@@@@@%%  @@@@@@@@@@@@@@@@XXXXXXXXXXXXXXXXXXXXX",
"XXXXXXXXXXXXXXXXXXXXX@@@@@@@@@@@@@@@@    @@@@@@@@@@@@@@    @@@@@@@@@@@@@@@@XXXXXXXXXXXXXXXXXXXXX",
"XXXXXXXXXXXXXXXXXXXXX@@@@@@@@@@@@@@@@    @@@@@@@@@@@@@@    @@@@@@@@@@@@@@@@XXXXXXXXXXXXXXXXXXXXX",
"XXXXXXXXXXXXXXXXXXXXX@@@@@@@@@@@@@@@@    @@@@@@@@@@@@@@    @@@@@@@@@@@@@@@@XXXXXXXXXXXXXXXXXXXXX",
"XXXXXXXXXXXXXXXXXXXXX@@@@@@@@@@@@@@@@    @@@@@@@@@@@@@@    @@@@@@@@@@@@@@@@@@XXXXXXXXXXXXXXXXXXX",
"XXXXXXXXXXXXXXXXXXXXX@@@@@@@@@@@@@@@@    @@@@@@@@@@@@@@    @@@@@@@@@@@@@@@@@@XXXXXXXXXXXXXXXXXXX",
"XXXXXXXXXXXXXXXXXXX@@@@%%%%%##@@@@@@@@@@@@@@@@@@@@@@@@@@@@@@@@@@@@##%%%%%%%@@XXXXXXXXXXXXXXXXXXX",
"XXXXXXXXXXXXXXXXXXX@@@@%%%%%##@@@@@@@@@@@@@@@@@@@@@@@@@@@@@@@@@@@@##%%%%%%%@@XXXXXXXXXXXXXXXXXXX",
"XXXXXXXXXXXXXXXXX%%%%%%%%%%%%%%%%%%@@@@@@@@@@@@@@@@@@@@@@@@@@%%%%%%%%%%%%%%%%%%XXXXXXXXXXXXXXXXX",
"XXXXXXXXXXXXXXXXX%%%%%%%%%%%%%%%%%%@@@@@@@@@@@@@@@@@@@@@@@@@@%%%%%%%%%%%%%%%%%%XXXXXXXXXXXXXXXXX",
"XXXXXXXXXXXXXXXXX%%%%%%%%%%%--==%%%%%%%@@@@@@@@@@@@@@@@@@%%%%%%%----%%%%%%%%%%%XXXXXXXXXXXXXXXXX",
"XXXXXXXXXXXXXXXXX%%%%%%%%%%%--==%%%%%%%@@@@@@@@@@@@@@@@@@%%%%%%%----%%%%%%%%%%%XXXXXXXXXXXXXXXXX",
"XXXXXXXXXXXXXXXXX%%%%%%%%%%%--==%%%%%%%@@@@@@@@@@@@@@@@@@%%%%%%%----%%%%%%%%%%%XXXXXXXXXXXXXXXXX",
"XXXXXXXXXXXXXXXXXXX%%%%%%%%%%%%%-----%%%%@@@@@@@@@@@@@@%%%%-----%%%%%%%%%%%%%XXXXXXXXXXXXXXXXXXX",
"XXXXXXXXXXXXXXXXXXX%%%%%%%%%%%%%-----%%%%@@@@@@@@@@@@@@%%%%-----%%%%%%%%%%%%%XXXXXXXXXXXXXXXXXXX",
"XXXXXXXXXXXXXXXXXXXXXXX%%%%%----%%%%%%%**&&&@@@@@@@@@@@**%%%%%%%----%%%%%%%XXXXXXXXXXXXXXXXXXXXX",
"XXXXXXXXXXXXXXXXXXXXXXX%%%%%----%%%%%%%**&&&@@@@@@@@@@@**%%%%%%%----%%%%%%%XXXXXXXXXXXXXXXXXXXXX",
"XXXXXXXXXXXXXXXXXXXXXXXXXX%%%%%%-----%%*****        *****%%-----%%%%%%XXXXXXXXXXXXXXXXXXXXXXXXXX",
"XXXXXXXXXXXXXXXXXXXXXXXXXX%%%%%%-----%%*****        *****%%-----%%%%%%XXXXXXXXXXXXXXXXXXXXXXXXXX",
"XXXXXXXXXXXXXXXXXXXXXXXXXXXXXX%%%%%%%%%*****        *****%%%%%%%%%XXXXXXXXXXXXXXXXXXXXXXXXXXXXXX",
"XXXXXXXXXXXXXXXXXXXXXXXXXXXXXX%%%%%%%%%*****        *****%%%%%%%%%XXXXXXXXXXXXXXXXXXXXXXXXXXXXXX",
"XXXXXXXX        XX       XX    %%%    %*                   %%  %%%XXX  XXX       XX      XXXXXXX",
"XXXXXXX oooooooo  ooooooo  oooo X oooo  ooooooo   * ooooooo  oo XXXX oo X ooooooo  oooooo XXXXXX",
"XXXXXXX oooooooo  ooooooo  oooo   oooo  ooooooo   * ooooooo  oo XXXX oo X ooooooo  ooooooo XXXXX",
"XXXXXXX oo      O oo   oo  oo  ooo  oo  oo     ...* oo   oo  oo XXXX oo O oo     X oo   oo XXXXX",
"XXXXXXX oo     OO oo   oo  oo  ooo  oo  oo    ....* oo % oo  ooo XX ooo O oo   XXX oo  ooo XXXXX",
"XXXXXXX oo oooo X ooooooo  oo  ooo  oo  oooooo .... oo X oo X oo XX oo XX ooooo XX oooooo XXXXXX",
"XXXXXXX oo ooooo  ooooooo  oo  ooo  oo  oooooo .... oo X oo X ooo  ooo XX ooooo XX ooooo XXXXXXX",
"XXXXXXX oo    oo  oo   oo  oo X   X oo  oo    %%%%% oo X oo XX oo  oo XXX oo   XXX oo ooo XXXXXX",
"XXXXXXX oo    oo  oo X oo  oo XXXXX oo  oo     %%%% oo   oo XX oooooo XXX oo     X oo  ooo XXXXX",
"XXXXXXX oooooooo  oo X oo  oo XXXXX oo  ooooooo XXX ooooooo XXX oooo XXXX ooooooo  oo X oo XXXXX",
"XXXXXXX oooooooo  oo X oo  oo XXXXX oo  ooooooo XXX ooooooo XXXX oo XXXXX ooooooo  oo X oo XXXXX",
"XXXXXXXX        XX  XXX  XX  XXXXXXX  XX       XXXXX       XXXXXX  XXXXXXX       XX  XXX  XXXXXX",
"XXXXXXXXXXXXXXXXXXXXXXXXXXXXXXXXXXXXXXXXXXXXXXXXXXXXXXXXXXXXXXXXXXXXXXXXXXXXXXXXXXXXXXXXXXXXXXXX",
"XXXXXXXXXXXXXXXXXXXXXXXXXXXXXXXXXXXXXXXXXXXXXXXXXXXXXXXXXXXXXXXXXXXXXXXXXXXXXXXXXXXXXXXXXXXXXXXX",
"XXXXXXXXXXXXXXXXXXXXXXXXXXXXXXXXXXXXXXXXXXXXXXXXXXXXXXXXXXXXXXXXXXXXXXXXXXXXXXXXXXXXXXXXXXXXXXXX",
"XXXXXXXXXXXXXXXXXXXXXXXXXXXXXXXXXXXXXXXXXXXXXXXXXXXXXXXXXXXXXXXXXXXXXXXXXXXXXXXXXXXXXXXXXXXXXXXX",
"XXXXXXXXXXXXXXXXXXXXXXXXXXXXXXXXXXXXXXXXXXXXXXXXXXXXXXXXXXXXXXXXXXXXXXXXXXXXXXXXXXXXXXXXXXXXXXXX",
"XXXXXXXXXXXXXXXXXXXXXXXXXXXXXXXXXXXXXXXXXXXXXXXXXXXXXXXXXXXXXXXXXXXXXXXXXXXXXXXXXXXXXXXXXXXXXXXX",
"XXXXXXXXXXXXXXXXXXXXXXXXXXXXXXXXXXXXXXXXXXXXXXXXXXXXXXXXXXXXXXXXXXXXXXXXXXXXXXXXXXXXXXXXXXXXXXXX",
"XXXXXXXXXXXXXXXXXXXXXXXXXXXXXXXXXXXXXXXXXXXXXXXXXXXXXXXXXXXXXXXXXXXXXXXXXXXXXXXXXXXXXXXXXXXXXXXX",
"XXXXXXXXXXXXXXXXXXXXXXXXXXXXXXXXXXXXXXXXXXXXXXXXXXXXXXXXXXXXXXXXXXXXXXXXXXXXXXXXXXXXXXXXXXXXXXXX",
"XXXXXXXXXXXXXXXXXXXXXXXXXXXXXXXXXXXXXXXXXXXXXXXXXXXXXXXXXXXXXXXXXXXXXXXXXXXXXXXXXXXXXXXXXXXXXXXX",
"XXXXXXXXXXXXXXXXXXXXXXXXXXXXXXXXXXXXXXXXXXXXXXXXXXXXXXXXXXXXXXXXXXXXXXXXXXXXXXXXXXXXXXXXXXXXXXXX",
"XXXXXXXXXXXXXXXXXXXXXXXXXXXXXXXXXXXXXXXXXXXXXXXXXXXXXXXXXXXXXXXXXXXXXXXXXXXXXXXXXXXXXXXXXXXXXXXX"
};
