/* XPM */
static char *_935831715594f9bde3b908d1bcbe2aejGc1vyTbnBhBnrEB[] = {
/* columns rows colors chars-per-pixel */
"32 32 3 1 ",
"  c #795548",
". c #C62828",
"X c #558B2F",
/* pixels */
"                                ",
"                        XX      ",
" XX                      X X    ",
"  X X                     X     ",
"   X                            ",
"                                ",
"                                ",
"                  XX            ",
"                  .X X          ",
"         XX .    ...X           ",
"          X...    .             ",
"           X.                   ",
"              .                 ",
"       .     ... .     .        ",
"      ...  .  . ...   ...       ",
"       .  ...  . .  .  .        ",
"           .  ...  ...          ",
"             . . .  .           ",
"       .  . ... ...  XX         ",
"      ...... ..  .    X X       ",
"     XX.  .  ...       X        ",
"      X X   . . .    .          ",
"      .X   ... ...  ...         ",
"     ...    .   .    .   .      ",
"      ..                ...     ",
"      ...                .      ",
"       .         XX             ",
"                  X X           ",
"      XX           X       XX   ",
"       X X                  X X ",
"        X                    X  ",
"                                "
};
