/* XPM */
static char *c0f9f98223384604dcb891b6a9ffad62HKt9S7D3awK5TdNZ[] = {
/* columns rows colors chars-per-pixel */
"32 32 14 1 ",
"  c black",
". c #4A4A4C",
"X c #795548",
"o c #8B421C",
"O c #9E471A",
"+ c #FF6011",
"@ c #FE661A",
"# c #558B2F",
"$ c #FF9411",
"% c #EFA078",
"& c #DFDFDF",
"* c #FEE9C9",
"= c #FBFBFB",
"- c white",
/* pixels */
"XXXXXXXXXXXXXXXXXXXXXXXXXXXXXXXX",
"XXXXXXXXXXXXXXXXXXXXXXXX##XXXXXX",
"X##XXXXXX&&XXXXXXXXXXXXXX#X#XXXX",
"XX#X#XXX&&&+XXXXXXXXXXXXXX#XXXXX",
"XXX#XXXX&&&+++XXXXXXXXXXXXXXXXXX",
"XXXXXXX&&&&&+++++XXXXXXXXXXXXXXX",
"XXXXXX&&&&&&+++++++++++++   XXXX",
"XXXXXX&-&-&%+++++++++++$$$    XX",
"XXXXX&&-&=&++++++++++$$$$$$$  XX",
"XXXXX&-&-&&+++++++++++$$$$$  XXX",
"XXXX&&-&-&++++++++++++$$$$   XXX",
"XXXX&&&&&&++  & ++++++++++  XXXX",
"XXX&****&+++   O++++++++++ XXXXX",
"XX&.****+++++++++++++++++XXXXXXX",
"X&.**  +++++++++++++++++XXXXXXXX",
"X&..   +++++++++++++++++XX##XXXX",
"X&..   +++++++++++++++++XXX#X#XX",
"X&.**  +++++++++++++++++XXXX#XXX",
"XX&.***+++++++++++++++++XXXXXXXX",
"XXX&****&+++  &o++++++++XXXXXXXX",
"XXXX&&&&&&++    ++++++++++XXXXXX",
"XXXX&&-&-&++++++++++++++++ XXXXX",
"XXXXX&-&-&&+++++++++++$$$$  XXXX",
"XXXXX&&-&-&+++++++++++$$$$$  XXX",
"XXXXXX&-&-&@+++++++++$$$$$$$  XX",
"XXXXXX&&&&&&+++++++++++$$$    XX",
"XXXXXXX&&&&&++++++XXX+++    XXXX",
"XX##XXX&&&&&++++XXXXXXXXXXXXXXXX",
"XXX#X#XX&&&++XXXXXXXXXXXXXXXXXXX",
"XXXX#XXXX&&XXXXXXXXXXXXXXXXXXXXX",
"XXXXXXXXXXXXXXXXXXXXXXXXXXXXXXXX",
"XXXXXXXXXXXXXXXXXXXXXXXXXXXXXXXX"
};
