/* XPM */
static char *c123419acf9747bbb0e37a56e902f3a779LmxWHyFpJYlYCa[] = {
/* columns rows colors chars-per-pixel */
"32 32 14 1 ",
"  c black",
". c #4A4A4C",
"X c #795548",
"o c #8B421C",
"O c #9E471A",
"+ c #FF6011",
"@ c #FE661A",
"# c #558B2F",
"$ c #FF9411",
"% c #EFA078",
"& c #DFDFDF",
"* c #FEE9C9",
"= c #FBFBFB",
"- c white",
/* pixels */
"XXXXXXXXXXXXXXXXXXXXXXXXXXXXXXXX",
"X##XXXXXXXXXXX&&&&XXXXXXXXXXXXXX",
"XX#X#XXXXXXXX&....&XXXXXXXXXXXXX",
"XXX#XXXXXXXX&.*..*.&XXXXX##XXXXX",
"XXXXXXXXXX&&***  ***&&XXXX#X#XXX",
"XXXXXXXX&&&&**    **&&&&XXX#XXXX",
"XXXXXX&&&--&**    **&--&&&XXXXXX",
"XXXXX&&--&&&**+++++*&&&--&&&XXXX",
"XXX&&&&&&--&&++++++&&--&&&&&&XXX",
"XX&&&&&-=&&&++++++++&&&--&&&&&XX",
"XX&&&&&&&&++++++++++++&&&&&&&&XX",
"XXX++&&%++++++++++++++++@&&&+XXX",
"XXXX+++++++  ++++++  ++++++++XXX",
"XXXX+++++++  ++++++  +++++++XXXX",
"XXXXX++++++& ++++++& +++++++XXXX",
"XXXXX++++++ O++++++o +++++++XXXX",
"XXXXX++++++++++++++++++++++XXXXX",
"XXXXXX+++++++++++++++++++++XXXXX",
"XXXXXX++++++++++++++++++++XXXXXX",
"XXXXXX++++++++++++++++++++XXXXXX",
"XXXXXX++++++++++++++++++++XXXXXX",
"XXXXXX++$+++++++++++++++$++XXXXX",
"XXXXXX++$$$+++++++++++$$$++XXXXX",
"XXXXXX+$$$$+++++++++++$$$$+XXXXX",
"XXXXXX+$$$$+++XXXXXX++$$$$ XXXXX",
"XXXXXX $$$$++XXXXXXX++$$$$ XXXXX",
"XXXXXX  $$   XXXXXXXX  $$  XXXXX",
"X##XXX  $   XXX##XXXXX  $  XXXXX",
"XX#X#XX    XXXXX#X#XXXX   XXXXXX",
"XXX#XXX  XXXXXXXX#XXXXXX  XXXXXX",
"XXXXXXXXXXXXXXXXXXXXXXXXXXXXXXXX",
"XXXXXXXXXXXXXXXXXXXXXXXXXXXXXXXX"
};
