/* XPM */
static char *c17a03a1d2bc4b49f6faf3e87e04663eBcslatXhAjxmx7BT[] = {
/* columns rows colors chars-per-pixel */
"32 32 14 1 ",
"  c black",
". c #4A4A4C",
"X c #795548",
"o c #8B421C",
"O c #9E471A",
"+ c #FF6011",
"@ c #FE661A",
"# c #558B2F",
"$ c #FF9411",
"% c #EFA078",
"& c #DFDFDF",
"* c #FEE9C9",
"= c #FBFBFB",
"- c white",
/* pixels */
"XXXXXXXXXXXXXXXXXXXXXXXXXXXXXXXX",
"XXX##XXXXXXXXXXXXXXXXXXXXXXXXXXX",
"XXXX#X#XXXXXXXXXXXXXX&&XXXXXXXXX",
"XXXXX#XXXXXXXXXXXXXX+&&&XXXXXXXX",
"XXXXXXXXXXXXXXXXXX+++&&&XXX##XXX",
"XXXXXXXXXXXXXXX+++++&&&&&XXX#X#X",
"XXXX   +++++++++++++&&&&&&XXX#XX",
"XX    $$$+++++++++++%&-&-&XXXXXX",
"XX  $$$$$$$++++++++++&=&-&&XXXXX",
"XXX  $$$$$+++++++++++&&-&-&XXXXX",
"XXX   $$$$++++++++++++&-&-&&XXXX",
"XXXX  ++++++++++ &  ++&&&&&&XXXX",
"XXXXX ++++++++++O   +++&****&XXX",
"XXXXXXX+++++++++++++++++****.&XX",
"XXXXXXXX+++++++++++++++++  **.&X",
"XXXXXXXX+++++++++++++++++   ..&X",
"XXXXXXXX+++++++++++++++++   ..&X",
"XXXXXXXX+++++++++++++++++  **.&X",
"XXXXXXXX+++++++++++++++++***.&XX",
"XXXXXXXX++++++++o&  +++&****&XXX",
"XXXXXX++++++++++    ++&&&&&&XXXX",
"XXXXX ++++++++++++++++&-&-&&XXXX",
"XXXX  $$$$+++++++++++&&-&-&XXXXX",
"XXX  $$$$$+++++++++++&-&-&&XXXXX",
"XX  $$$$$$$+++++++++@&-&-&XXXXXX",
"XX    $$$+++++++++++&&&&&&XXXXXX",
"XXXX    +++XXX++++++&&&&&XXXXXXX",
"XXXXXXXXXXXXXXXX++++&&&&&X##XXXX",
"XXXXXXXXXXXXXXXXXXX++&&&XXX#X#XX",
"XXXXXXXX##XXXXXXXXXXX&&XXXXX#XXX",
"XXXXXXXXX#X#XXXXXXXXXXXXXXXXXXXX",
"XXXXXXXXXX#XXXXXXXXXXXXXXXXXXXXX"
};
