/* XPM */
static char *_d25e08a5e744faeffa20694a6386d06oW4b7dkvi9CBqRj5[] = {
/* columns rows colors chars-per-pixel */
"32 32 14 1 ",
"  c black",
". c #4A4A4C",
"X c #795548",
"o c #8B421C",
"O c #9E471A",
"+ c #FF6011",
"@ c #FE661A",
"# c #558B2F",
"$ c #FF9411",
"% c #EFA078",
"& c #DFDFDF",
"* c #FEE9C9",
"= c #FBFBFB",
"- c white",
/* pixels */
"XXXXXXXXXXXXXXXXXXXXXXXXXXXXXXXX",
"XXXXXXXXXXXXXXXXXXXXXXXXXXXXXXXX",
"XXXXXXX  XXXXXX##XXXXXXX  XXXXXX",
"XXXXXXX    XXXXX#X#XXXX   XXXXXX",
"XXXXXX  $   XXXXX#XXXX  $  XXXXX",
"XXXXXX  $$   XXXXXXXX  $$  XXXXX",
"XXXXXX $$$$++XXXXXXX++$$$$ XXXXX",
"XXXXXX+$$$$+++XXXXXX++$$$$ XXXXX",
"XXXXXX+$$$$+++++++++++$$$$+XXXXX",
"XXXXXX++$$$+++++++++++$$$++XXXXX",
"XXXXXX++$+++++++++++++++$++XXXXX",
"X##XXX++++++++++++++++++++XX##XX",
"XX#X#X++++++++++++++++++++XXX#X#",
"XXX#XX++++++++++++++++++++XXXX#X",
"XXXXXX+++++++++++++++++++++XXXXX",
"XXXXX++++++++++++++++++++++XXXXX",
"XXXXX++++++ O++++++o +++++++XXXX",
"XXXXX++++++& ++++++& +++++++XXXX",
"XXXX+++++++  ++++++  +++++++XXXX",
"XXXX+++++++  ++++++  ++++++++XXX",
"XXX++&&%++++++++++++++++@&&&+XXX",
"XX&&&&&&&&++++++++++++&&&&&&&&XX",
"XX&&&&&-=&&&++++++++&&&--&&&&&XX",
"XXX&&&&&&--&&++++++&&--&&&&&&XXX",
"XXXXX&&--&&&**+++++*&&&--&&&XXXX",
"XXXXXX&&&--&**    **&--&&&XXXXXX",
"XXXXXXXX&&&&**    **&&&&XXXXXXXX",
"XXXXXXXXXX&&***  ***&&XXXXXXXXXX",
"X##XXXXXXXXX&.*..*.&XXXXXX##XXXX",
"XX#X#XXXXXXXX&....&XXXXXXXX#X#XX",
"XXX#XXXXXXXXXX&&&&XXXXXXXXXX#XXX",
"XXXXXXXXXXXXXXXXXXXXXXXXXXXXXXXX"
};
