/* XPM */
static char *result[] = {
/* columns rows colors chars-per-pixel */
"32 32 7 1 ",
"  c #795548",
". c #DD2C00",
"X c #FF3D00",
"o c #FF6200",
"O c #558B2F",
"+ c #EFEBE9",
"@ c #FBE9E7",
/* pixels */
"                                ",
"                        OO      ",
" OO                      O O    ",
"  O O             ++++    O     ",
"   O            @@@@@@@         ",
"               o@@@@@@@@        ",
"              oXX@@@@@@@        ",
"             oXXX@@@@@@@        ",
"            oXXXXX@@@@@         ",
"         OOoXXXXXXXX..          ",
"          OoXXXXXXX..           ",
"          oXXXXXXX..            ",
"          oXXXXXX...            ",
"          oXXXXXX...            ",
"          oXXXXX...             ",
"          oXXXXX...             ",
"          oXXXX...              ",
"          oXXXX...              ",
"         oXXXX...    OO         ",
"         oXXX....     O O       ",
"     OO oXXX....       O        ",
"      O XXX...                  ",
"       OX....                   ",
"        ...                     ",
"                                ",
"                                ",
"                 OO             ",
"                  O O           ",
"      OO           O       OO   ",
"       O O                  O O ",
"        O                    O  ",
"                                "
};
