/* XPM */
static char *a1fe82ad3c1d45a5c035460e06e95c3bB4XVrJ9Gd6mvnvda[] = {
/* columns rows colors chars-per-pixel */
"32 32 3 1 ",
"  c #795548",
". c #558B2F",
"X c white",
/* pixels */
"                                ",
"                        ..      ",
" ..                      . .    ",
"  . .                     .     ",
"   .        XX XX XX            ",
"          XX XXXXXX XX          ",
"           XX XXXX XX           ",
"         X  XX XX XX  X         ",
"        XX   XXXXXX.  XX        ",
"       XXX.X  XXXX  X XXX       ",
"     X    XX   XX   XX    X     ",
"     XX  XXX X XX X XXX  XX     ",
"    X XX    XX XX XX    XX X    ",
"    XX XX  XXX XX XXX  XX XX    ",
"     XX XX    XXXX    XX XX     ",
"    XXXXXXXXXXXXXXXXXXXXXXXX    ",
"    XXXXXXXXXXXXXXXXXXXXXXXX    ",
"     XX XX    XXXX    XX XX     ",
"    XX XX  XXX XX XXX  XX XX    ",
"    X XX    XX XX XX    XX X    ",
"     XX  XXX X XX X XXX  XX     ",
"     X.   XX   XX   XX    X     ",
"       XXX X  XXXX  X XXX       ",
"        XX   XXXXXX   XX        ",
"         X  XX XX XX  X         ",
"           XX XXXX XX           ",
"          XX XXXXXX XX          ",
"            XX XX XX.           ",
"      ..           .       ..   ",
"       . .                  . . ",
"        .                    .  ",
"                                "
};
