/* XPM */
static char *result[] = {
/* columns rows colors chars-per-pixel */
"32 32 3 1 ",
"  c #795548",
". c #558B2F",
"X c white",
/* pixels */
"                                ",
"                        ..      ",
" ..          X   X       . .    ",
"  . .         X X         .     ",
"   .   XX    X X X    XX        ",
"     XXXX XX  XXX  XX XXXX      ",
"     XXXX XX X X X XX XXXX      ",
"    XXXXX XX  XXX .XX XXXXX     ",
"    XXXXXXXX X X X XXXXXXXX     ",
"        XXXX  XXX  XXXX         ",
"     XXXXXXX.  X   XXXXXXX      ",
"     XXXXXXXX  X  XXXXXXXX      ",
"           XXX X XXX            ",
"  X X X X   XXXXXXX   X X X X   ",
"   X X X X   XXXXX   X X X X    ",
"    XXXXXXXXXXXXXXXXXXXXXXX     ",
"   X X X X   XXXXX   X X X X    ",
"  X X X X   XXXXXXX   X X X X   ",
"           XXX X XXX ..         ",
"     XXXXXXXX  X  XXXXXXXX      ",
"     XXXXXXX   X   XXXXXXX      ",
"      . XXXX  XXX  XXXX         ",
"    XXXXXXXX X X X XXXXXXXX     ",
"    XXXXX XX  XXX  XX XXXXX     ",
"     XXXX XX X X X XX XXXX      ",
"     XXXX XX  XXX  XX XXXX      ",
"       XX    X X X.   XX        ",
"              X X . .           ",
"      ..     X   X .       ..   ",
"       . .                  . . ",
"        .                    .  ",
"                                "
};
