/* XPM */
static char *_303a0c728d74862aeb747d5b2e01020X5Mm6gvL23bIadnr[] = {
/* columns rows colors chars-per-pixel */
"32 32 4 1 ",
"  c #3E2723",
". c #1B5E20",
"X c #795548",
"o c #558B2F",
/* pixels */
"XXXXXXXXXXXXXXXXXXXXXXXXXXXXXXXX",
"XXXXXXXXXXXXX.......XXXXooXXXXXX",
"XooXXXXXXXX...........XXXoXoXXXX",
"XXoXoXXXXX.............XXXoXXXXX",
"XXXoXXXXX...............XXXXXXXX",
"XXXXXXXX.................XXXXXXX",
"XXXXXXX...................XXXXXX",
"XXXXXXX...................XXXXXX",
"XXXXXX.....................XXXXX",
"XXXXXX.....................XXXXX",
"XXXXXX.....................XXXXX",
"XXXXXX.....................XXXXX",
"XXXXXXX...................XXXXXX",
"XXXXXXX...................XXXXXX",
"XXXXXXXX.................XXXXXXX",
"XXXXXXXXX...............XXXXXXXX",
"XXXXXXXXXX....     ....XXXXXXXXX",
"XXXXXXXXXXXX..     ..XXXXXXXXXXX",
"XXXXXXXXXXXXXX     XXooXXXXXXXXX",
"XXXXXXXXXXXXXX     XXXoXoXXXXXXX",
"XXXXXooXXXXXXX     XXXXoXXXXXXXX",
"XXXXXXoXoXXXXX     XXXXXXXXXXXXX",
"XXXXXXXoXXXXXX     XXXXXXXXXXXXX",
"XXXXXXXXXXXXXX     XXXXXXXXXXXXX",
"XXXXXXXXXXXXXX     XXXXXXXXXXXXX",
"XXXXXXXXXXXXXX     XXXXXXXXXXXXX",
"XXXXXXXXXXXXXX     XXXXXXXXXXXXX",
"XXXXXXXXXXXXXX     XoXXXXXXXXXXX",
"XXXXXXooXXXXX       XXXXXXXooXXX",
"XXXXXXXoXoXXXXXXXXXXXXXXXXXXoXoX",
"XXXXXXXXoXXXXXXXXXXXXXXXXXXXXoXX",
"XXXXXXXXXXXXXXXXXXXXXXXXXXXXXXXX"
};
