/* XPM */
static char *result[] = {
/* columns rows colors chars-per-pixel */
"96 96 11 1 ",
"  c black",
". c #33231E",
"X c #4D362E",
"o c #795548",
"O c #DD2C00",
"+ c #FF3D00",
"@ c #FF5500",
"# c #558B2F",
"$ c #FFEB3B",
"% c #EFEBE9",
"& c white",
/* pixels */
"oooooooooooooooooooooooooooooooooooooooooooooooooooooooooooooooooooooooooooooooooooooooooooooooo",
"oooooooooooooooooooooooooooooooooooooooooooooooooooooooooooooooooooooooooooooooooooooooooooooooo",
"oooooooooooooooooooooooooooooooooooooooooooooooooooooooooooooooooooooooooooooooooooooooooooooooo",
"oooooooooooooooooooooooooooooooooooooooooooooooooooooooooooooooooooooooo######oooooooooooooooooo",
"oooooooooooooooooooooooooooooooooooooooooooooooooooooooooooooooooooooooo######oooooooooooooooooo",
"oooooooooooooooooooooooooooooooooooooooooooooooooooooooooooooooooooooooo######oooooooooooooooooo",
"ooo######oooooooooooooooooooooooooooooooooooooooooooooooooooooooooooooooooo###ooo###oooooooooooo",
"ooo######oooooooooooooooooooooooooooooooooooooooooooooooooooooooooooooooooo###ooo###oooooooooooo",
"ooo######oooooooooooooooooooooooooooooooooooooooooooooooooooooooooooooooooo###ooo###oooooooooooo",
"oooooo###ooo###ooooooooooooooooooooooooooooooooooooooooooooooooooooooooooooooo###ooooooooooooooo",
"oooooo###ooo###ooooooooooo   ooooooooooo   oooo            ooooo   oooooo   oo###ooooooooooooooo",
"oooooo###ooo###oooooooooo $$$ ooooooooo $$$ oo $$$$$$$$$$$$ ooo $$$ oooo $$$ o###ooooooooooooooo",
"ooooooooo###oooooo....... $$$$ ....... $$$$ .. $$$$$$$$$$$$ ... $$$ .... $$$ ....ooooooooooooooo",
"ooooooooo###oooooo........ $$$ ....... $$$ ... $$$$$$$$$$$$ ... $$$ .... $$$ ....ooooooooooooooo",
"ooooooooo###oooooo........ $$$ ....... $$$ ... $$$      $$$ ... $$$ .... $$$ ....ooooooooooooooo",
"oooooooooooooooooo........ $$$$ ..... $$$$ ... $$$ .... $$$ ... $$$ .... $$$ ....ooooooooooooooo",
"oooooooooooooooooo......... $$$$ ... $$$$ .... $$$ .... $$$ ... $$$ .... $$$ ....ooooooooooooooo",
"oooooooooooooooooo......... $$$$$ . $$$$ ..... $$$ .... $$$ ... $$$ .... $$$ ....ooooooooooooooo",
"oooooooooooooooooo......&&&. $$$$ . $$$ &&&&&. $$$ &&&. $$$ &&& $$$ &&&& $$$ ....ooooooooooooooo",
"oooooooooooooooooo......&&&.. $$$$ $$$$ &&&&&. $$$ &&&. $$$ &&& $$$ &&&& $$$ ....ooooooooooooooo",
"oooooooooooooooooo......&&&... $$$$$$$ &&&&&&. $$$ &&&. $$$ &&& $$$ &&&& $$$ ....ooooooooooooooo",
"oooooooooooooooooo......&&&...& $$$$$ &...&&&. $$$ ...& $$$ &&& $$$ &... $$$ ....ooooooooooooooo",
"oooooooooooooooooo......&&&...& $$$$$ &...&&&. $$$ ...& $$$ &&& $$$ &... $$$ ....ooooooooooooooo",
"oooooooooooooooooo......&&&...&& $$$ &&...&&&. $$$ ...& $$$ &&& $$$ &... $$$ ....ooooooooooooooo",
"oooooooooooooooooo......&&&&&&&& $$$ &&...&&&. $$$ ...& $$$ &&& $$$ &&&& $$$ ....ooooooooooooooo",
"oooooooooooooooooo......&&&&&&&& $$$ &&...&&&. $$$ ...& $$$ &&& $$$ &&&& $$$ ....ooooooooooooooo",
"oooooooooooooooooo......&&&&&&&& $$$ &&...&&&. $$$ ...& $$$ &&& $$$ &&&& $$$ ....ooooooooooooooo",
"oooooooooooooooooo......&&&...&& $$$ &&...&&&. $$$ .... $$$ &&& $$$ &... $$$ ....ooooooooooooooo",
"oooooooooooooooooo......&&&...&& $$$ &&...&&&. $$$ .... $$$ &&& $$$ &... $$$ ....ooooooooooooooo",
"oooooooooooooooooo......&&&...&& $$$ &&...&&&. $$$ .... $$$ &&& $$$ &... $$$ ....ooooooooooooooo",
"oooooooooooooooooo......&&&...&& $$$ &&&&&&&&. $$$ .... $$$ &&& $$$ &&&& $$$ ....ooooooooooooooo",
"oooooooooooooooooo......&&&...&& $$$ &&&&&&&&. $$$ .... $$$ &&& $$$ &&&& $$$ ....ooooooooooooooo",
"oooooooooooooooooo......&&&...&& $$$ &&&&&&&&. $$$ .... $$$ &&& $$$ &&&& $$$ ....ooooooooooooooo",
"oooooooooooooooooo.............. $$$ ......... $$$ .... $$$ ... $$$ .... $$$ ....ooooooooooooooo",
"oooooooooooooooooo.............. $$$ ......... $$$ .... $$$ ... $$$ .... $$$ ....ooooooooooooooo",
"oooooooooooooooooo.............. $$$ ......... $$$      $$$ ... $$$      $$$ ....ooooooooooooooo",
"oooooooooooooooooo.............. $$$ ......... $$$$$$$$$$$$ ... $$$$$$$$$$$$ ....ooooooooooooooo",
"oooooooooooooooooo.............. $$$ ......... $$$$$$$$$$$$ ... $$$$$$$$$$$$ ....ooooooooooooooo",
"oooooooooooooooooo.............. $$$ ......... $$$$$$$$$$$$ ... $$$$$$$$$$$$ ....ooooooooooooooo",
"ooooooooooooooooooooooooooooooooo   ooooooooo..            oo%%%            oooooooooooooooooooo",
"ooooooooooooooooooooooooooooooooooooooooooooo.........ooooo%%%%%%%%%%%%ooooooooooooooooooooooooo",
"ooooooooooooooooooooooooooooooooooooooooooooo.........ooo%%%%%%%%%%%%%%%%ooooooooooooooooooooooo",
"ooooooooooooooooooooooooooooooooooooooooooooo.........ooo%%%%%%%%%%%%%%%%ooooooooooooooooooooooo",
"ooooooooooooooooooooooooooooooooooooooooooooo.........o@@%%%%%%%%%%%%%%%%%%ooooooooooooooooooooo",
"ooooooooooooooooooooooooooooooooooooooooooooo.........o@@%%%%%%%%%%%%%%%%%%ooooooooooooooooooooo",
"ooooooooooooooooooooooooooooooooooooooooooXXX........@@++++%%%%%%%%%%%%%%%%ooooooooooooooooooooo",
"ooooooooooooooooooooooooooooooooooooooooooXXX........@@++++%%%%%%%%%%%%%%%%ooooooooooooooooooooo",
"ooooooooooooooooooooooooooooooooooooooooooXXX......@@++++++++%%%%%%%%%%%%ooooooooooooooooooooooo",
"ooooooooooooooooooooooooooooooooooooXXXXXXXXX......@@++++++++%%%%%%%%%%%%ooooooooooooooooooooooo",
"ooooooooooooooooooooooooooooooooooooXXXXXXXXX....@@++++++++++++%%%%%%%%ooooooooooooooooooooooooo",
"ooooooooooooooooooooooooooooooooooooXXXXXXXXX....@@++++++++++++%%%%%%%%ooooooooooooooooooooooooo",
"oooooooooooooooooooooooooooooooooXXXXXXXXXXXXXX@@++++++++++++++++%%%%ooooooooooooooooooooooooooo",
"oooooooooooooooooooooooooooooooooXXXXXXXXXXXXXX@@++++++++++++++++OOOOooooooooooooooooooooooooooo",
"oooooooooooooooooooooooooooooooooXXXXXXXXXXXXXX@@+++++++++++++++OOOOOooooooooooooooooooooooooooo",
"ooooooooooooooooooooooooooooooXXXXXXXXXXXXXXXXX@@+++++++++++++++OOOXXooooooooooooooooooooooooooo",
"ooooooooooooooooooooooooooooooXXXXXXXXXXXXXXXXX@@++++++++++++++OOOOXXooooooooooooooooooooooooooo",
"ooooooooooooooooooooooooooooooXXXXXXXXXXXXXXXXX@@++++++++++++++OOOOXXooooooooooooooooooooooooooo",
"ooooooooooooooooooooooooooooooXXXXXXXXXXXXXXXXX@@+++++++++++++OOOOOXXooo###ooooooooooooooooooooo",
"ooooooooooooooooooooooooooooooXXXXXXXXXXXXXXXXX@@+++++++++++++OOOOOXXooo###ooooooooooooooooooooo",
"oooooooooooooooo   oooooooooooXXXXXXXXXXXXXX   @@++++   +++++     XXXooo##   ooooooooooooooooooo",
"ooooooooooooooo $$$ #ooooooXXXXXXXXXXXXXXXX $$$ @+++ $$$ +++ $$$$$ XXXXXo $$$ oooooooooooooooooo",
"ooooooooooooooo $$$ #ooooooXXXXXXXXXXXXXXXX $$$ @+++ $$$ +++ $$$$$$ XXXXo $$$ oooooooooooooooooo",
"ooooooooooooooo $$$ #ooooooXXXXXXXXXXXXXXXX $$$ @+++ $$$ +++ $$$$$$ XXXXo $$$ oooooooooooooooooo",
"ooooooooooooooo $$$ #ooo###XXXXXXXXXXXXXXXX $$$ ++++ $$$ ++O $$$$$$ XXXXo $$$ oooooooooooooooooo",
"ooooooooooooooo $$$ #ooo###XXXXXXXXXXXXXXXX $$$ ++++ $$$ ++O $$$$$$$ XXXo $$$ oooooooooooooooooo",
"ooooooooooooooo $$$ #ooo###XXX   XXXXXXXXXX $$$ ++++ $$$ +OO $$$ $$$ XXXo $$$ oooooooooooooooooo",
"ooooooooooooooo $$$ o###oooXX $$$ XXXXXXXXX $$$ ++++ $$$ OOO $$$ $$$ XXXo $$$ oooooooooooooooooo",
"ooooooooooooooo $$$$ ###oooX $$$$$ XXXXXXX $$$$ ++++ $$$ OOO $$$  $$$ XXo $$$ oooooooooooooooooo",
"oooooooooooooooo $$$ ###oooX $$$$$ XXXXXXX $$$ +++++ $$$ OOO $$$  $$$ XXo $$$ oooooooooooooooooo",
"oooooooooooooooo $$$ ooooooX $$$$$ XXXXXXX $$$ +++++ $$$ OOO $$$  $$$ XXo $$$ oooooooooooooooooo",
"oooooooooooooooo $$$ ooooooX $$$$$ XXXXXXX $$$ +++++ $$$ OOO $$$  $$$$ Xo $$$ oooooooooooooooooo",
"oooooooooooooooo $$$ ooooooX $$$$$ XXXXXXX $$$ ++++O $$$ OOX $$$ X $$$ Xo $$$ oooooooooooooooooo",
"oooooooooooooooo $$$$ ooooo $$$$$$$ XXXXX $$$$ ++OOO $$$ OOX $$$ X $$$ Xo $$$ oooooooooooooooooo",
"ooooooooooooooooo $$$ ooooo $$$ $$$ XXXXX $$$ ++OOOO $$$ XXX $$$ X $$$$ o $$$ oooooooooooooooooo",
"ooooooooooooooooo $$$ ooooo $$$ $$$ XXXXX $$$ OOOOOO $$$ XXX $$$ XX $$$ o $$$ oooooooooooooooooo",
"ooooooooooooooooo $$$$ ooo $$$$ $$$$ XXX $$$$ OOOOOO $$$ XXX $$$ XX $$$ o $$$ oooooooooooooooooo",
"oooooooooooooooooo $$$ ooo $$$ X $$$ XXX $$$ OOOOOOO $$$ XXX $$$ XX $$$$  $$$ oooooooooooooooooo",
"oooooooooooooooooo $$$ ooo $$$ X $$$ XXX $$$ XXXXXXX $$$ XXX $$$ XXX $$$  $$$ oooooooooooooooooo",
"oooooooooooooooooo $$$$ o $$$$ X $$$$ X $$$$ XXXXXXX $$$ XXX $$$ XXX $$$$ $$$ oooooooooooooooooo",
"ooooooooooooooooooo $$$ o $$$ XXX $$$ X $$$ XXXXXXXX $$$ XXX $$$ XXXX $$$ $$$ oooooooooooooooooo",
"ooooooooooooooooooo $$$ o $$$ XXX $$$ X $$$ XXXXXXXX $$$ XXX $$$ XXXX $$$ $$$ oooooooooooooooooo",
"ooooooooooooooooooo $$$$ $$$$ ooo $$$$ $$$$ XXXXXXXX $$$ XXX $$$ Xooo $$$ $$$ oooooooooooooooooo",
"oooooooooooooooooooo $$$$$$$ ooooX $$$$$$$ XXXXXXXXX $$$ XXX $$$ Xooo $$$$$$$ oooooooooooooooooo",
"ooooooooooooooooooooo $$$$$ oooooXX $$$$$ XXXXXXXXXX $$$ XXX $$$ Xoooo $$$$$$ oooooooooooooooooo",
"oooooooooooooooooo### $$$$$ ooooooo $$$$$ XXXXXXXXXX $$$ XXX $$$ Xooooo $$$$$ ooo######ooooooooo",
"oooooooooooooooooo####     ooooooooo     XXXXXXXXXXX    XXXXX   oooooooo     oooo######ooooooooo",
"oooooooooooooooooo######ooooooooooooXXXXXXXXXXXXXXXXXXXXXXXXXXXoooooooooooooooooo######ooooooooo",
"ooooooooooooooooooooo###ooo###ooooooooooooXXXXXXXXXXXXXXXooooooooooooooooooooooooooo###ooo###ooo",
"ooooooooooooooooooooo###ooo###ooooooooooooXXXXXXXXXXXXXXXooooooooooooooooooooooooooo###ooo###ooo",
"ooooooooooooooooooooo###ooo###ooooooooooooXXXXXXXXXXXXXXXooooooooooooooooooooooooooo###ooo###ooo",
"oooooooooooooooooooooooo###oooooooooooooooooooooooooooooooooooooooooooooooooooooooooooo###oooooo",
"oooooooooooooooooooooooo###oooooooooooooooooooooooooooooooooooooooooooooooooooooooooooo###oooooo",
"oooooooooooooooooooooooo###oooooooooooooooooooooooooooooooooooooooooooooooooooooooooooo###oooooo",
"oooooooooooooooooooooooooooooooooooooooooooooooooooooooooooooooooooooooooooooooooooooooooooooooo",
"oooooooooooooooooooooooooooooooooooooooooooooooooooooooooooooooooooooooooooooooooooooooooooooooo",
"oooooooooooooooooooooooooooooooooooooooooooooooooooooooooooooooooooooooooooooooooooooooooooooooo"
};
